<svg xmlns="http://www.w3.org/2000/svg" width="32" height="32" viewBox="0 0 32 32"><defs><linearGradient id="a" x1="50%" x2="50%" y1="0%" y2="143.239%"><stop offset="0%" stop-color="#fff"/><stop offset="3%" stop-color="#fff" stop-opacity=".83"/><stop offset="7%" stop-color="#fff" stop-opacity=".66"/><stop offset="11%" stop-color="#fff" stop-opacity=".5"/><stop offset="15%" stop-color="#fff" stop-opacity=".37"/><stop offset="19%" stop-color="#fff" stop-opacity=".25"/><stop offset="25%" stop-color="#fff" stop-opacity=".16"/><stop offset="30%" stop-color="#fff" stop-opacity=".09"/><stop offset="37%" stop-color="#fff" stop-opacity=".04"/><stop offset="47%" stop-color="#fff" stop-opacity=".01"/><stop offset="100%" stop-color="#fff" stop-opacity="0"/></linearGradient></defs><g fill="none"><circle cx="16" cy="16" r="16" fill="#051d2d"/><g fill="url(#a)" transform="translate(9 6)"><path d="M6.993 13.986a6.993 6.993 0 1 1 6.993-6.993 7 7 0 0 1-6.993 6.993M7 6.951A.049.049 0 1 0 7.049 7a.055.055 0 0 0-.05-.05z"/><path d="M6.993 20.986a6.993 6.993 0 1 1 6.993-6.993 7 7 0 0 1-6.993 6.993M7 13.951a.049.049 0 1 0 .049.049.055.055 0 0 0-.05-.05z"/></g></g></svg>